<?xml version="1.0" encoding="UTF-8" standalone="no"?>
<svg
   viewBox="0 0 900 900"
   preserveAspectRatio="none"
   version="1.1"
   xml:space="preserve"
   id="SVGRoot"
   inkscape:version="1.4.2 (f4327f4, 2025-05-13)"
   sodipodi:docname="cyber-tag.svg"
   xmlns:inkscape="http://www.inkscape.org/namespaces/inkscape"
   xmlns:sodipodi="http://sodipodi.sourceforge.net/DTD/sodipodi-0.dtd"
   xmlns="http://www.w3.org/2000/svg"
   xmlns:svg="http://www.w3.org/2000/svg"><defs
   id="defs2"><inkscape:perspective
   sodipodi:type="inkscape:persp3d"
   inkscape:vp_x="0 : 450 : 1"
   inkscape:vp_y="0 : 1000 : 0"
   inkscape:vp_z="900 : 450 : 1"
   inkscape:persp3d-origin="450 : 300 : 1"
   id="perspective3" />
     </defs>
  <sodipodi:namedview
   pagecolor="#a9a9a9"
   bordercolor="#292929"
   borderopacity="1"
   inkscape:showpageshadow="2"
   inkscape:pageopacity="0.0"
   inkscape:pagecheckerboard="0"
   inkscape:deskcolor="#232323"
   id="namedview1"
   inkscape:zoom="1.35"
   inkscape:cx="450"
   inkscape:cy="457.40741"
   inkscape:window-width="2560"
   inkscape:window-height="1417"
   inkscape:window-x="-8"
   inkscape:window-y="1072"
   inkscape:window-maximized="1"
   inkscape:current-layer="SVGRoot" />
 <style
   type="text/css"
   id="style1">
g.prefab path {
  vector-effect:non-scaling-stroke;
  -inkscape-stroke:hairline;
  fill: none;
  fill-opacity: 1;
  stroke-opacity: 1;
  stroke: #00349c;
}
 </style>
 <g
   inkscape:label="Cross"
   style="display:none;fill:#ffffff;stroke:#000000;stroke-width:2"
   class="prefab"
   id="g2">
  <path
   d="m 749.60503,148.57132 h -602.712 v 50.22556 h 602.712 z m 0,100.4511 h -602.712 v 50.22736 h 602.712 z m 0,100.4529 h -602.712 v 50.22555 h 602.712 z m 0,100.45109 h -602.712 v 50.22738 h 602.712 z m 0,100.45293 h -602.712 v 50.22554 h 602.712 z m 0,100.45108 h -602.712 v 50.22736 h 602.712 z m 0,100.45291 h -602.712 V 148.57132 h 602.712 z m -602.712,-602.71201 v 602.71199 h 50.22554 V 148.57132 Z m 100.45108,0 v 602.71199 h 50.22737 V 148.57132 Z m 100.45291,0 v 602.71199 h 50.22554 V 148.57132 Z m 100.45109,0 v 602.71199 h 50.22738 V 148.57132 Z m 100.45292,0 v 602.71199 h 50.22555 V 148.57132 Z m 100.45109,0 v 602.71199 h 50.22736 V 148.57132 Z m 100.45291,0 v 602.71199 h -602.712 V 148.57132 Z"
   id="path1" />
  <path
   d="M 874.43077,449.92732 448.24904,23.745584 412.73421,59.260416 838.91594,485.44216 Z M 803.40113,520.95697 377.21938,94.775236 341.70328,130.29134 767.88501,556.47307 Z M 732.3702,591.98789 306.18845,165.80616 270.67362,201.32099 696.85536,627.50273 Z M 661.34054,663.01754 235.15881,236.83581 199.64268,272.35193 625.82443,698.53367 Z M 590.30959,734.04849 164.12786,307.86676 128.61304,343.38158 554.79478,769.56331 Z M 519.27996,805.07813 93.098217,378.8964 57.582106,414.4125 483.76384,840.59424 Z M 448.24902,876.10906 22.067279,449.92733 448.24904,23.745586 874.43077,449.92732 Z m 1e-5,-852.363476 L 22.067292,449.92732 57.582115,485.44215 483.76385,59.260407 Z M 519.27868,94.775226 93.096935,520.95696 128.61305,556.47307 554.79479,130.29134 Z m 71.03093,71.030924 -426.18174,426.18174 35.51481,35.51482 426.18175,-426.18173 z m 71.02964,71.02966 -426.18173,426.18173 35.51611,35.51612 426.18174,-426.18174 z M 732.3702,307.86674 306.18845,734.04848 341.70328,769.5633 767.88502,343.38157 Z M 803.39985,378.89639 377.2181,805.07812 412.73421,840.59423 838.91595,414.4125 Z M 874.43077,449.92732 448.24903,876.10906 22.067292,449.92732 448.24903,23.745584 Z"
   id="path2" />
 </g>
<rect
   style="fill:#00ffff;stroke-width:0.999185"
   id="rect2"
   width="454.07407"
   height="13.333333"
   x="445.18518"
   y="2.2222188" /><g
   sodipodi:type="inkscape:box3d"
   id="g3"
   style="display:none;fill:#000000"
   inkscape:perspectiveID="#perspective3"
   inkscape:corner0="0.33516484 : 0.29367803 : 0 : 1"
   inkscape:corner7="-0.00082236839 : -0.062087674 : 0.57488686 : 1"><path
     sodipodi:type="inkscape:box3dside"
     id="path8"
     style="fill:#e9e9ff;fill-rule:evenodd;stroke:none;stroke-linejoin:round"
     inkscape:box3dsidetype="11"
     d="m 506.47748,374.77794 108.10863,-16.0563 V 584.73887 L 506.47748,561.03766 Z"
     points="614.58611,358.72164 614.58611,584.73887 506.47748,561.03766 506.47748,374.77794 " /><path
     sodipodi:type="inkscape:box3dside"
     id="path3"
     style="fill:#353564;fill-rule:evenodd;stroke:none;stroke-linejoin:round"
     inkscape:box3dsidetype="6"
     d="m 337.03704,342.38929 v 266.45827 l 169.44044,-47.8099 V 374.77794 Z"
     points="337.03704,608.84756 506.47748,561.03766 506.47748,374.77794 337.03704,342.38929 " /><path
     sodipodi:type="inkscape:box3dside"
     id="path7"
     style="fill:#afafde;fill-rule:evenodd;stroke:none;stroke-linejoin:round"
     inkscape:box3dsidetype="13"
     d="M 337.03704,608.84756 450.37037,662.26223 614.58611,584.73887 506.47748,561.03766 Z"
     points="450.37037,662.26223 614.58611,584.73887 506.47748,561.03766 337.03704,608.84756 " /><path
     sodipodi:type="inkscape:box3dside"
     id="path4"
     style="fill:#4d4d9f;fill-rule:evenodd;stroke:none;stroke-linejoin:round"
     inkscape:box3dsidetype="5"
     d="m 337.03704,342.38929 113.33333,-36.18557 164.21574,52.51792 -108.10863,16.0563 z"
     points="450.37037,306.20372 614.58611,358.72164 506.47748,374.77794 337.03704,342.38929 " /><path
     sodipodi:type="inkscape:box3dside"
     id="path6"
     style="fill:#d7d7ff;fill-rule:evenodd;stroke:none;stroke-linejoin:round"
     inkscape:box3dsidetype="14"
     d="M 450.37037,306.20372 V 662.26223 L 614.58611,584.73887 V 358.72164 Z"
     points="450.37037,662.26223 614.58611,584.73887 614.58611,358.72164 450.37037,306.20372 " /><path
     sodipodi:type="inkscape:box3dside"
     id="path5"
     style="fill:#8686bf;fill-rule:evenodd;stroke:none;stroke-linejoin:round"
     inkscape:box3dsidetype="3"
     d="M 337.03704,342.38929 450.37037,306.20372 V 662.26223 L 337.03704,608.84756 Z"
     points="450.37037,306.20372 450.37037,662.26223 337.03704,608.84756 337.03704,342.38929 " /></g><rect
   style="fill:#00ffff;stroke-width:1.01283"
   id="rect8"
   width="205.92592"
   height="23.703703"
   x="693.33331"
   y="11.111108" /><path
   style="fill:#00ffff"
   d="m 654.81482,15.555555 17.77777,19.25926 h 29.62963 l -0.74074,-23.7037 z"
   id="path9" /><path
   style="fill:#00ffff"
   d="M 0.74074333,802.22222 1.4814833,901.48148 H 100 Z"
   id="path10" /></svg>
